# xmcd
#
# Track frame offsets:
#	150
#	17430
#	41614
#	58401
#	74139
#	92388
#	109141
#	131455
#	161191
#	197034
#	215372
#	233958
#	251778
#	267476
#	282006
#	299420
#
# Disc length: 4251 seconds
#
# Revision: 0
# Processed by: cddbd v1.5.2PL0 Copyright (c) Steve Scherf et al.
# Submitted via: audiograbber 1.83.01
#
DISCID=f9109910
DTITLE=Various Artist - Жажда Скорости По Русски 2
DYEAR=2007
DGENRE=Chanson
TTITLE0=140 ударов в минуту - I Love You
TTITLE1=F. Hardcoroff - Я За Тебя Умру
TTITLE2=Руки Вверх and Rammstein - Маленькие Рамштайн Девчонки
TTITLE3=Вирус - Счастье
TTITLE4=Ди-ВАМ and Jimmy - Не Вопрос
TTITLE5=AM-Project - Двигай Телом
TTITLE6=Валдай and UNIX - Хотелка
TTITLE7=Русский размер - Было и Прошло
TTITLE8=ППК - Воскрешение
TTITLE9=Mr. Credo - Автобан
TTITLE10=Пульс - Лёля
TTITLE11=Комиссар - Любовь - Это Яд
TTITLE12=Тату - Клоуны
TTITLE13=Hi-Fi - Чёрный Ворон
TTITLE14=DJ Max and Лена - Суперпарень
TTITLE15=Акула and AM-Project - Я Не Сплю, Не Ем
EXTD=
EXTT0=
EXTT1=
EXTT2=
EXTT3=
EXTT4=
EXTT5=
EXTT6=
EXTT7=
EXTT8=
EXTT9=
EXTT10=
EXTT11=
EXTT12=
EXTT13=
EXTT14=
EXTT15=
PLAYORDER=
